<?xml version="1.0" encoding="utf-8"?>
<!-- Generator: Adobe Illustrator 17.0.0, SVG Export Plug-In . SVG Version: 6.00 Build 0)  -->
<!DOCTYPE svg PUBLIC "-//W3C//DTD SVG 1.1//EN" "http://www.w3.org/Graphics/SVG/1.1/DTD/svg11.dtd">
<svg version="1.1" id="Layer_1" xmlns="http://www.w3.org/2000/svg" xmlns:xlink="http://www.w3.org/1999/xlink" x="0px" y="0px"
	 width="105.605px" height="50.897px" viewBox="0 0 105.605 50.897" enable-background="new 0 0 105.605 50.897"
	 xml:space="preserve">
<path fill="#585857" d="M23.927,22.55c-1.418-1.715-2.603-2.539-2.603-2.539S22.498,20.961,23.927,22.55z"/>
<path d="M23.927,22.55c-1.429-1.589-2.603-2.539-2.603-2.539c0.992,5.483-0.684,10.138-3.414,13.937
	c-6.34-1.651-11.218-7.185-11.717-14.082c-0.624-8.661,5.89-16.191,14.552-16.817c2.058-0.148,4.053,0.114,5.905,0.707l2.177-0.943
	c-2.521-1.01-5.304-1.487-8.191-1.28C10.456,2.269,2.801,11.115,3.537,21.295C4.065,28.614,8.79,34.63,15.19,37.158
	c-5.812,5.906-13.465,8.973-13.465,8.973c7.244-1.406,12.427-4.797,15.978-8.186c1.261-1.204,2.316-2.407,3.18-3.522
	C23.199,31.446,25.446,24.235,23.927,22.55z"/>
<path fill="#FAAF42" d="M30.01,6.206c0,0-14.194-1.185-6.41,12.632s1.839,17.571,0.706,18.999c0,0,11.646-6.461,3.101-18.428
	C20.188,9.298,28.565,6.349,30.01,6.206z"/>
<text transform="matrix(1 0 0 1 32.1861 20.0114)" font-family="'Denmark'" font-size="13.7073">GoldSlam</text>
<text transform="matrix(1 0 0 1 66.4913 31.7379)"><tspan x="0" y="0" font-family="'SavoyeLetPlain'" font-size="30.6853">s</tspan><tspan x="6.533" y="0" font-family="'SavoyeLetPlain'" font-size="26.9593">ports</tspan></text>
</svg>
