<?xml version="1.0" encoding="utf-8"?>
<!-- Generator: Adobe Illustrator 17.0.0, SVG Export Plug-In . SVG Version: 6.00 Build 0)  -->
<!DOCTYPE svg PUBLIC "-//W3C//DTD SVG 1.1//EN" "http://www.w3.org/Graphics/SVG/1.1/DTD/svg11.dtd">
<svg version="1.1" id="Layer_1" xmlns="http://www.w3.org/2000/svg" xmlns:xlink="http://www.w3.org/1999/xlink" x="0px" y="0px"
	 width="105.605px" height="50.897px" viewBox="0 0 105.605 50.897" enable-background="new 0 0 105.605 50.897"
	 xml:space="preserve">
<path fill="#585857" d="M23.927,22.55c-1.418-1.715-2.603-2.539-2.603-2.539S22.498,20.961,23.927,22.55z"/>
<path d="M23.927,22.55c-1.429-1.589-2.603-2.539-2.603-2.539c0.992,5.483-0.684,10.138-3.414,13.937
	c-6.34-1.651-11.218-7.185-11.717-14.082c-0.624-8.661,5.89-16.191,14.552-16.817c2.058-0.148,4.053,0.114,5.905,0.707l2.177-0.943
	c-2.521-1.01-5.304-1.487-8.191-1.28C10.456,2.269,2.801,11.115,3.537,21.295C4.065,28.614,8.79,34.63,15.19,37.158
	c-5.812,5.906-13.465,8.973-13.465,8.973c7.244-1.406,12.427-4.797,15.978-8.186c1.261-1.204,2.316-2.407,3.18-3.522
	C23.199,31.446,25.446,24.235,23.927,22.55z"/>
<path fill="#FAAF42" d="M30.01,6.206c0,0-14.194-1.185-6.41,12.632s1.839,17.571,0.706,18.999c0,0,11.646-6.461,3.101-18.428
	C20.188,9.298,28.565,6.349,30.01,6.206z"/>
<g enable-background="new    ">
	<path d="M42.933,20.011h-6.388c-1.161,0-2.12-0.492-2.878-1.479c-0.713-0.931-1.069-2.034-1.069-3.312
		c0-1.305,0.393-2.418,1.179-3.34c0.823-0.967,1.855-1.45,3.098-1.45h5.949v1.768h-5.387c-0.713,0-1.284,0.311-1.713,0.931
		c-0.393,0.565-0.589,1.254-0.589,2.064c0,0.84,0.183,1.56,0.548,2.161c0.42,0.685,0.987,1.026,1.699,1.026h3.222v-2.427h-3.29
		v-1.59h5.62V20.011z"/>
	<path d="M52.418,16.44c0,1.236-0.393,2.184-1.179,2.843c-0.722,0.604-1.704,0.906-2.947,0.906c-1.243,0-2.207-0.274-2.893-0.823
		c-0.795-0.632-1.192-1.616-1.192-2.953c0-1.116,0.43-1.996,1.289-2.637c0.768-0.576,1.713-0.865,2.837-0.865
		c1.234,0,2.223,0.31,2.968,0.927C52.046,14.456,52.418,15.324,52.418,16.44z M50.293,16.427c0-0.577-0.18-1.061-0.541-1.45
		c-0.361-0.39-0.853-0.585-1.474-0.585c-0.567,0-1.035,0.199-1.405,0.599c-0.37,0.398-0.555,0.9-0.555,1.505
		c0,0.697,0.188,1.252,0.562,1.664c0.375,0.413,0.859,0.619,1.453,0.619c0.676,0,1.179-0.216,1.508-0.646
		C50.143,17.738,50.293,17.169,50.293,16.427z"/>
	<path d="M55.447,20.011h-1.933V10.43h1.933V20.011z"/>
	<path d="M63.904,20.011H59.45c-0.859,0-1.572-0.384-2.139-1.151c-0.521-0.713-0.781-1.549-0.781-2.509
		c0-0.923,0.292-1.727,0.877-2.412s1.316-1.028,2.193-1.028h2.453v-2.48h1.851V20.011z M61.999,18.463v-4.044h-1.768
		c-0.494,0-0.9,0.197-1.221,0.59c-0.319,0.393-0.479,0.858-0.479,1.397c0,0.54,0.146,1.018,0.438,1.433
		c0.293,0.416,0.686,0.624,1.179,0.624H61.999z"/>
	<path d="M75.378,17.03c0,0.839-0.279,1.546-0.836,2.12c-0.558,0.574-1.267,0.861-2.125,0.861h-6.785v-1.714h5.593
		c0.374,0,0.689-0.087,0.945-0.262c0.293-0.202,0.438-0.478,0.438-0.827c0-0.818-0.575-1.228-1.727-1.228h-2.824
		c-0.813,0-1.525-0.25-2.138-0.752c-0.612-0.501-0.919-1.139-0.919-1.914c0-0.856,0.3-1.552,0.898-2.085
		c0.598-0.533,1.387-0.8,2.364-0.8h6.483v1.645h-5.716c-0.256,0-0.514,0.106-0.774,0.32s-0.391,0.466-0.391,0.756
		c0,0.327,0.125,0.602,0.377,0.824c0.251,0.223,0.555,0.334,0.911,0.334h3.112c0.968,0,1.729,0.248,2.282,0.745
		C75.101,15.552,75.378,16.21,75.378,17.03z"/>
	<path d="M78.393,20.011h-1.933V10.43h1.933V20.011z"/>
	<path d="M86.685,20.011h-5.126c-0.576,0-1.067-0.193-1.474-0.581c-0.407-0.387-0.61-0.876-0.61-1.469
		c0-0.619,0.185-1.132,0.554-1.536c0.369-0.405,0.832-0.608,1.388-0.608h3.309v-0.384c0-0.119-0.021-0.222-0.062-0.309
		s-0.106-0.189-0.198-0.309c-0.128-0.146-0.26-0.239-0.396-0.28c-0.136-0.042-0.328-0.062-0.573-0.062h-3.54v-1.562h3.043h0.589
		c0.667,0,1.165,0.058,1.494,0.171c0.329,0.114,0.612,0.285,0.85,0.514c0.302,0.301,0.503,0.629,0.604,0.984
		c0.101,0.356,0.15,0.812,0.15,1.368V20.011z M84.725,18.558v-1.385h-2.412c-0.229,0-0.423,0.066-0.583,0.197
		s-0.239,0.306-0.239,0.522c0,0.19,0.077,0.349,0.232,0.476c0.155,0.126,0.334,0.189,0.535,0.189H84.725z"/>
	<path d="M98.255,20.011h-1.851v-4.443c0-0.174-0.019-0.311-0.055-0.41c-0.037-0.101-0.11-0.208-0.22-0.322
		c-0.109-0.113-0.22-0.195-0.329-0.246c-0.109-0.05-0.237-0.075-0.384-0.075h-1.357v5.497h-1.878v-5.538h-2.192v5.538h-1.933v-7.101
		h7.607c0.475,0,0.85,0.044,1.124,0.13c0.273,0.087,0.543,0.271,0.809,0.555c0.21,0.228,0.372,0.451,0.486,0.67
		s0.172,0.456,0.172,0.712V20.011z"/>
</g>
<g enable-background="new    ">
	<path d="M65.262,30.779l0.839-0.989c0.439,1.039,1.139,1.559,2.098,1.559c0.5,0,0.927-0.162,1.281-0.487
		c0.354-0.324,0.532-0.701,0.532-1.131c0-0.31-0.085-0.574-0.255-0.794s-0.574-0.589-1.214-1.108
		c-0.589-0.479-0.986-0.856-1.191-1.132c-0.204-0.274-0.307-0.592-0.307-0.951c0-0.47,0.137-0.904,0.412-1.304
		c0.274-0.399,0.642-0.722,1.102-0.966c0.459-0.245,0.943-0.367,1.453-0.367c0.449,0,0.826,0.112,1.131,0.337
		s0.457,0.512,0.457,0.861c0,0.46-0.194,0.774-0.584,0.944c-0.061-0.47-0.237-0.837-0.532-1.102s-0.672-0.397-1.131-0.397
		c-0.41,0-0.767,0.133-1.071,0.397s-0.457,0.567-0.457,0.906c0,0.42,0.26,0.834,0.779,1.244l0.868,0.704
		c0.85,0.669,1.274,1.354,1.274,2.053c0,0.52-0.147,1.006-0.442,1.461c-0.295,0.454-0.694,0.816-1.198,1.086
		c-0.505,0.27-1.037,0.404-1.596,0.404C66.621,32.007,65.872,31.598,65.262,30.779z"/>
</g>
<g enable-background="new    ">
	<path d="M71.76,36.963l2.488-12.386l1.264-0.54l-0.869,3.778c0.649-1.308,1.262-2.249,1.837-2.823
		c0.574-0.575,1.204-0.862,1.889-0.862c0.526,0,0.943,0.193,1.251,0.579c0.307,0.386,0.46,0.917,0.46,1.592
		c0,0.685-0.138,1.387-0.414,2.106s-0.665,1.373-1.165,1.961c-0.904,1.089-1.9,1.633-2.988,1.633c-0.685,0-1.246-0.181-1.685-0.54
		l-1.356,5.502H71.76z M74.025,30.592c0.368,0.72,0.886,1.08,1.553,1.08c0.966,0,1.808-0.786,2.527-2.356
		c0.588-1.264,0.883-2.326,0.883-3.186c0-0.465-0.088-0.825-0.264-1.08c-0.176-0.254-0.426-0.382-0.75-0.382
		c-0.527,0-1.08,0.348-1.659,1.04c-0.553,0.684-1.022,1.448-1.408,2.291c-0.149,0.333-0.288,0.688-0.415,1.066
		c-0.127,0.377-0.248,0.763-0.361,1.158L74.025,30.592z"/>
	<path d="M81.173,29.21c0-0.79,0.213-1.577,0.639-2.363c0.426-0.785,0.977-1.423,1.652-1.915s1.364-0.737,2.066-0.737
		c0.737,0,1.332,0.244,1.784,0.73c0.451,0.487,0.678,1.117,0.678,1.889c0,0.842-0.209,1.658-0.626,2.448
		c-0.416,0.79-0.965,1.437-1.645,1.941c-0.681,0.505-1.367,0.757-2.061,0.757c-0.746,0-1.348-0.252-1.804-0.757
		S81.173,30.035,81.173,29.21z M86.807,26.314c0-0.526-0.13-0.96-0.389-1.302c-0.259-0.343-0.591-0.514-0.994-0.514
		c-0.368,0-0.722,0.119-1.06,0.355c-0.338,0.237-0.647,0.584-0.928,1.04c-0.316,0.526-0.577,1.14-0.783,1.842
		s-0.31,1.325-0.31,1.869c0,0.649,0.127,1.15,0.382,1.501c0.254,0.352,0.618,0.526,1.093,0.526c0.764,0,1.435-0.53,2.014-1.593
		c0.298-0.544,0.535-1.153,0.711-1.83C86.719,27.534,86.807,26.903,86.807,26.314z"/>
	<path d="M89.071,27.999c0.755-0.913,1.259-1.764,1.514-2.553c-0.711-0.396-1.066-0.961-1.066-1.698c0-0.351,0.083-0.637,0.25-0.855
		c0.167-0.22,0.377-0.329,0.632-0.329c0.264,0,0.479,0.12,0.646,0.361c0.166,0.242,0.25,0.556,0.25,0.941
		c0,0.272-0.049,0.575-0.145,0.908c0.236,0.062,0.451,0.093,0.645,0.093c0.544,0,0.991-0.158,1.343-0.475h0.632l-0.092,0.185
		c-0.632,1.158-1.152,2.296-1.561,3.416s-0.611,1.955-0.611,2.508c0,0.202,0.052,0.371,0.157,0.507s0.232,0.204,0.382,0.204
		c0.36,0,0.939-0.382,1.738-1.146l0.21,0.237c-0.246,0.271-0.627,0.609-1.146,1.014c-0.465,0.368-0.899,0.553-1.303,0.553
		c-0.342,0-0.612-0.114-0.81-0.343c-0.197-0.228-0.296-0.539-0.296-0.935c0-0.658,0.254-1.491,0.764-2.501
		c0.184-0.377,0.421-0.808,0.71-1.29c0.29-0.482,0.654-1.057,1.093-1.724l0.132-0.184c-0.29,0.263-0.568,0.449-0.836,0.559
		c-0.268,0.11-0.572,0.165-0.915,0.165c-0.158,0-0.324-0.021-0.5-0.065c-0.281,0.859-0.808,1.746-1.58,2.658L89.071,27.999z
		 M90.875,24.656c0.034-0.22,0.052-0.403,0.052-0.553c0-0.308-0.05-0.549-0.151-0.725c-0.101-0.175-0.229-0.263-0.388-0.263
		c-0.088,0-0.165,0.042-0.23,0.125c-0.066,0.083-0.099,0.187-0.099,0.31C90.058,23.963,90.33,24.332,90.875,24.656z"/>
	<path d="M97.417,24.709l-1.001,4.383c-0.104,0.482-0.157,0.824-0.157,1.026c0,0.316,0.074,0.57,0.224,0.764
		s0.347,0.289,0.592,0.289c0.237,0,0.454-0.067,0.652-0.204c0.197-0.136,0.498-0.419,0.901-0.849l0.158-0.158l0.197,0.197
		c-0.518,0.632-0.95,1.078-1.297,1.337s-0.687,0.388-1.02,0.388c-0.422,0-0.758-0.138-1.008-0.414s-0.375-0.639-0.375-1.086
		c0-0.334,0.066-0.816,0.197-1.448l0.856-4.225h-1.264l0.092-0.447h1.264l0.737-3.555l1.264-0.5l-0.922,4.055h2.133l-0.092,0.447
		H97.417z"/>
	<path d="M99.01,30.895l0.737-0.868c0.386,0.912,1,1.369,1.843,1.369c0.438,0,0.813-0.143,1.125-0.429
		c0.312-0.284,0.468-0.616,0.468-0.993c0-0.272-0.074-0.505-0.224-0.698c-0.149-0.192-0.505-0.518-1.066-0.974
		c-0.518-0.422-0.867-0.753-1.047-0.994s-0.27-0.52-0.27-0.836c0-0.412,0.12-0.793,0.362-1.145c0.241-0.351,0.563-0.634,0.967-0.849
		c0.404-0.215,0.83-0.322,1.277-0.322c0.395,0,0.726,0.099,0.994,0.296c0.268,0.197,0.401,0.45,0.401,0.757
		c0,0.404-0.171,0.681-0.514,0.829c-0.053-0.412-0.208-0.734-0.467-0.966c-0.26-0.232-0.591-0.35-0.994-0.35
		c-0.36,0-0.674,0.117-0.941,0.35s-0.401,0.498-0.401,0.796c0,0.369,0.229,0.733,0.685,1.092l0.764,0.618
		c0.745,0.589,1.118,1.189,1.118,1.804c0,0.457-0.129,0.885-0.388,1.283c-0.259,0.399-0.61,0.718-1.054,0.955
		c-0.442,0.236-0.91,0.355-1.401,0.355C100.203,31.975,99.545,31.615,99.01,30.895z"/>
</g>
</svg>
